<svg xmlns="http://www.w3.org/2000/svg" height="400" viewBox="0 0 400 400" width="400"><defs><marker id="d" refY="0" refX="0" overflow="visible" orient="auto"><path stroke-linejoin="round" d="M5.231 2.42L-1.324.01 5.23-2.401C4.184-.978 4.19.969 5.231 2.42z" fill-rule="evenodd" stroke="#466e32" stroke-width=".375" fill="#466e32"/></marker><marker id="c" refY="0" refX="0" overflow="visible" orient="auto"><path stroke-linejoin="round" d="M5.231 2.42L-1.324.01 5.23-2.401C4.184-.978 4.19.969 5.231 2.42z" fill-rule="evenodd" stroke="#466e32" stroke-width=".375" fill="#466e32"/></marker><marker id="b" refY="0" refX="0" overflow="visible" orient="auto"><path stroke-linejoin="round" d="M5.231 2.42L-1.324.01 5.23-2.401C4.184-.978 4.19.969 5.231 2.42z" fill-rule="evenodd" stroke="#2850c8" stroke-width=".375" fill="#2850c8"/></marker><marker id="a" refY="0" refX="0" overflow="visible" orient="auto"><path stroke-linejoin="round" d="M5.231 2.42L-1.324.01 5.23-2.401C4.184-.978 4.19.969 5.231 2.42z" fill-rule="evenodd" stroke="#c8281e" stroke-width=".375" fill="#c8281e"/></marker></defs><path stroke-linejoin="round" stroke="#000" stroke-width="1.8" fill="#edcdce" d="M34.4 291.8h43.2v93.6H34.4z"/><text font-size="27" y="343.161" x="56.198" font-family="sans-serif" word-spacing="0" letter-spacing="0"><tspan y="343.161" x="56.198" style="text-align:center" font-size="25" text-anchor="middle">x<tspan font-size="18.056" baseline-shift="sub">0</tspan></tspan></text><g stroke-width="1.8"><path d="M56 253.1v36" marker-start="url(#a)" stroke="#c8281e" fill="none"/><path stroke-linejoin="round" stroke="#000" fill="#dde8d3" d="M34.4 153.2h43.2v93.6H34.4z"/><path d="M56 114.5v36" marker-start="url(#b)" stroke="#2850c8" fill="none"/><path stroke-linejoin="round" stroke="#000" fill="#ccdaf3" d="M34.4 14.6h43.2v93.6H34.4z"/></g><text font-size="40" y="197.891" x="8.14" font-family="sans-serif" word-spacing="0" letter-spacing="0"/><path d="M110.33 200.02h-26" marker-start="url(#c)" stroke="#466e32" stroke-width="1.8" fill="none"/><path stroke-linejoin="round" stroke="#000" stroke-width="1.8" fill="#edcdce" d="M119.9 291.8h43.2v93.6h-43.2z"/><text font-size="27" y="343.161" x="141.698" font-family="sans-serif" word-spacing="0" letter-spacing="0"><tspan y="343.161" x="141.698" style="text-align:center" font-size="25" text-anchor="middle">x<tspan font-size="65%" baseline-shift="sub">1</tspan></tspan></text><g stroke-width="1.8"><path d="M141.5 253.1v36" marker-start="url(#a)" stroke="#c8281e" fill="none"/><path stroke-linejoin="round" stroke="#000" fill="#dde8d3" d="M119.9 153.2h43.2v93.6h-43.2z"/><path d="M141.5 114.5v36" marker-start="url(#b)" stroke="#2850c8" fill="none"/><path stroke-linejoin="round" stroke="#000" fill="#ccdaf3" d="M119.9 14.6h43.2v93.6h-43.2z"/></g><text font-size="40" y="197.891" x="93.64" font-family="sans-serif" word-spacing="0" letter-spacing="0"/><path d="M195.83 200.02h-26" marker-start="url(#c)" stroke="#466e32" stroke-width="1.8" fill="none"/><g font-family="sans-serif" word-spacing="0" letter-spacing="0"><text y="202.483" x="254.024"><tspan y="202.483" x="242.928" style="text-align:center" font-size="30" text-anchor="middle">...</tspan></text><text y="197.891" x="260.14"/><text y="197.891" x="176.14"/></g><path stroke-linejoin="round" stroke="#000" stroke-width="1.8" fill="#edcdce" d="M322.4 291.8h43.2v93.6h-43.2z"/><text font-size="27" y="343.161" x="344.198" font-family="sans-serif" word-spacing="0" letter-spacing="0"><tspan y="343.161" x="344.198" style="text-align:center" font-size="25" text-anchor="middle">x<tspan font-size="65%" baseline-shift="sub">n</tspan></tspan></text><g stroke-width="1.8"><path d="M344 253.1v36" marker-start="url(#a)" stroke="#c8281e" fill="none"/><path stroke-linejoin="round" stroke="#000" fill="#dde8d3" d="M322.4 153.2h43.2v93.6h-43.2z"/><path d="M344 114.5v36" marker-start="url(#b)" stroke="#2850c8" fill="none"/><path stroke-linejoin="round" stroke="#000" fill="#ccdaf3" d="M322.4 14.6h43.2v93.6h-43.2z"/><path d="M314.33 200.02h-26" marker-start="url(#d)" stroke="#466e32" fill="none"/></g><g font-size="27" font-family="sans-serif" word-spacing="0" letter-spacing="0"><text y="65.608" x="56.232"><tspan y="65.608" x="56.232" font-size="25" style="text-align:center" text-anchor="middle">y<tspan font-size="18.056" baseline-shift="sub">0</tspan></tspan></text><text y="65.636" x="141.881"><tspan y="65.636" x="141.881" font-size="25" style="text-align:center" text-anchor="middle">y<tspan font-size="65%" baseline-shift="sub">1</tspan></tspan></text><text y="65.636" x="344.326"><tspan y="65.636" x="344.326" font-size="25" style="text-align:center" text-anchor="middle">y<tspan font-size="65%" baseline-shift="sub">n</tspan></tspan></text><text y="205.161" x="55.469"><tspan y="205.161" x="55.469" font-size="25" style="text-align:center" text-anchor="middle">h<tspan font-size="18.056" baseline-shift="sub">0</tspan></tspan></text><text y="205.161" x="141.698"><tspan y="205.161" x="141.698" font-size="25" style="text-align:center" text-anchor="middle">h<tspan font-size="65%" baseline-shift="sub">1</tspan></tspan></text><text y="205.161" x="344.198"><tspan y="205.161" x="344.198" font-size="25" style="text-align:center" text-anchor="middle">h<tspan font-size="65%" baseline-shift="sub">n</tspan></tspan></text></g></svg>